custom-analysis
version=1
nRows=7
nColumns=42
inDegrees=no

This file contains tibia displacement and acting force.

Units are S.I. units (seconds, meters, Newtons, ...)
Angles are in degrees.

endheader
time	APT	SIT	knee_angle	aACL_R_force	pACL_R_force	aPCL_R_force	pPCL_R_force	aMCL_R_force	mMCL_R_force	pMCL_R_force	aLCL_R_force	mLCL_R_force	pLCL_R_force	aACL_R_length	pACL_R_length	aPCL_R_length	pPCL_R_length	aMCL_R_length	mMCL_R_length	pMCL_R_length	aLCL_R_length	mLCL_R_length	pLCL_R_length	aACL_R_strain	pACL_R_strain	aPCL_R_strain	pPCL_R_strain	aMCL_R_strain	mMCL_R_strain	pMCL_R_strain	aLCL_R_strain	mLCL_R_strain	pLCL_R_strain	femur_lat_meniscii_force_r	femur_lat_meniscii_torque_r	femur_med_meniscii_force_r	femur_med_meniscii_torque_r	femur_lat_tibia_force_r	femur_lat_tibia_torque_r	femur_med_tibia_force_r	femur_med_tibia_torque_r
      0.16840676	      0.00633170	      0.03317970	    101.84692521	      0.00000000	      0.00000000	   1526.92658474	   1094.86741503	      9.65044212	      6.33451332	      0.00000000	      0.00000000	      0.00000000	      0.00000000	      0.02821901	      0.02451997	      0.04019877	      0.03714459	      0.06135307	      0.06011148	      0.05798916	      0.04889776	      0.04401829	      0.04080753	     -0.08987079	     -0.03307464	      0.29276017	      0.23453996	      0.05731936	      0.00531804	     -0.04510004	     -0.12647003	     -0.21840587	     -0.22037781	     12.80591561	      4.94188879	      0.00096045	      0.00037516	    387.23766912	     13.99188338	   1182.64012140	     29.60953655
      0.16845810	      0.00631597	      0.03319409	    101.89246055	      0.00000000	      0.00000000	   1527.57189290	   1095.55200114	      9.55404271	      6.32699540	      0.00000000	      0.00000000	      0.00000000	      0.00000000	      0.02821538	      0.02452308	      0.04020254	      0.03714916	      0.06135220	      0.06011192	      0.05799321	      0.04889422	      0.04401718	      0.04081160	     -0.08998777	     -0.03295196	      0.29288156	      0.23469180	      0.05730439	      0.00532529	     -0.04503342	     -0.12653337	     -0.21842552	     -0.22030013	     12.99059854	      5.05393153	      0.00099772	      0.00038970	    388.11390160	     14.01818594	   1186.18820701	     29.70576425
      0.16848376	      0.00630810	      0.03320129	    101.91522962	      0.00000000	      0.00000000	   1527.89778458	   1095.90193396	      9.51652288	      6.33296094	      0.00000000	      0.00000000	      0.00000000	      0.00000000	      0.02821357	      0.02452464	      0.04020443	      0.03715144	      0.06135177	      0.06011213	      0.05799523	      0.04889244	      0.04401663	      0.04081364	     -0.09004614	     -0.03289037	      0.29294223	      0.23476772	      0.05729688	      0.00532891	     -0.04500008	     -0.12656503	     -0.21843527	     -0.22026117	     13.28961529	      5.16668735	      0.00101654	      0.00039704	    388.47055657	     14.03139296	   1187.40167756	     29.74482576
      0.16855279	      0.00628690	      0.03322062	    101.97647202	      0.00000000	      0.00000000	   1528.78473527	   1096.86341706	      9.46309063	      6.39009314	      0.00000000	      0.00000000	      0.00000000	      0.00000000	      0.02820872	      0.02452887	      0.04020950	      0.03715759	      0.06135059	      0.06011272	      0.05800069	      0.04888769	      0.04401517	      0.04081914	     -0.09020271	     -0.03272382	      0.29310534	      0.23497197	      0.05727660	      0.00533871	     -0.04491026	     -0.12665004	     -0.21846126	     -0.22015594	     13.87997537	      5.39325686	      0.00106710	      0.00041676	    390.52217474	     14.09896221	   1189.44117482	     29.76569756
      0.16856886	      0.00628196	      0.03322512	    101.99073109	      0.00000000	      0.00000000	   1529.73994390	   1097.84160101	     14.78473816	     10.66483894	      0.00000000	      0.00000000	      0.00000000	      0.00000000	      0.02820759	      0.02452985	      0.04021068	      0.03715902	      0.06135032	      0.06011286	      0.05800196	      0.04888658	      0.04401483	      0.04082043	     -0.09023906	     -0.03268485	      0.29314330	      0.23501954	      0.05727188	      0.00534100	     -0.04488931	     -0.12666981	     -0.21846725	     -0.22013134	     13.04988289	      5.06141767	      0.00092229	      0.00036029	    368.96382889	     13.33825516	   1111.66101534	     27.85997048
      0.16858493	      0.00627743	      0.03322937	    102.00508094	      0.00000000	      0.00000000	   1531.98310493	   1099.70039552	     30.54251552	     23.15283349	      0.00000000	      0.00000000	      0.00000000	      0.00000000	      0.02820681	      0.02453105	      0.04021195	      0.03716048	      0.06135037	      0.06011325	      0.05800344	      0.04888569	      0.04401468	      0.04082184	     -0.09026444	     -0.03263789	      0.29318409	      0.23506815	      0.05727275	      0.00534763	     -0.04486499	     -0.12668562	     -0.21846988	     -0.22010439	     10.32910326	      3.98847389	      0.00044852	      0.00017536	    307.33864065	     11.14109205	    875.64154711	     22.09746484
      0.16861756	      0.00626884	      0.03323765	    102.03434950	      0.00000000	      0.00000000	   1532.62173656	   1098.95625104	     36.42288177	     27.47502559	      0.00000000	      0.00000000	      0.00000000	      0.00000000	      0.02820570	      0.02453375	      0.04021461	      0.03716345	      0.06135091	      0.06011440	      0.05800670	      0.04888418	      0.04401462	      0.04082484	     -0.09029996	     -0.03253124	      0.29326963	      0.23516688	      0.05728219	      0.00536684	     -0.04481131	     -0.12671259	     -0.21847101	     -0.22004702	      9.23691977	      3.55980448	      0.00024362	      0.00009529	    283.55610101	     10.29191225	    792.74549558	     20.07711638
